<svg width="110" height="160" viewBox="0 0 110 160" fill="none" xmlns="http://www.w3.org/2000/svg">
<g clip-path="url(#clip0)">
<path d="M101.791 54.7043H13.1343C8.60066 54.7043 4.92538 58.3874 4.92538 62.9306V151.774C4.92538 156.317 8.60066 160 13.1343 160H101.791C106.325 160 110 156.317 110 151.774V62.9306C110 58.3874 106.325 54.7043 101.791 54.7043Z" fill="#3178C6"/>
<path fill-rule="evenodd" clip-rule="evenodd" d="M66.7052 137.162V148.522C68.5489 149.469 70.7296 150.179 73.2469 150.652C75.7642 151.126 78.4173 151.362 81.2067 151.362C83.9247 151.362 86.5072 151.102 88.9535 150.581C91.3998 150.061 93.5452 149.203 95.3885 148.008C97.2322 146.812 98.6918 145.25 99.7676 143.321C100.843 141.393 101.381 139.008 101.381 136.168C101.381 134.109 101.073 132.304 100.459 130.754C99.8443 129.204 98.9577 127.825 97.7995 126.618C96.6416 125.411 95.2526 124.329 93.6338 123.37C92.0146 122.411 90.1885 121.506 88.1556 120.654C86.6665 120.039 85.3313 119.441 84.1492 118.861C82.9675 118.281 81.9627 117.69 81.1357 117.086C80.3082 116.483 79.67 115.844 79.221 115.169C78.7719 114.495 78.5474 113.732 78.5474 112.879C78.5474 112.098 78.7481 111.394 79.1499 110.767C79.5518 110.14 80.1194 109.602 80.8521 109.152C81.5847 108.702 82.4828 108.353 83.5467 108.104C84.6101 107.856 85.7922 107.732 87.0921 107.732C88.0378 107.732 89.0364 107.803 90.088 107.945C91.1399 108.087 92.1977 108.306 93.2615 108.602C94.325 108.897 95.3589 109.27 96.3637 109.72C97.3681 110.17 98.2961 110.69 99.147 111.282V100.667C97.4214 100.004 95.5363 99.5134 93.4918 99.1938C91.4474 98.8742 89.1012 98.7146 86.4539 98.7146C83.7593 98.7146 81.2067 99.0046 78.7957 99.5845C76.3848 100.164 74.2632 101.069 72.4313 102.3C70.5995 103.531 69.1518 105.099 68.088 107.004C67.0245 108.909 66.4926 111.187 66.4926 113.838C66.4926 117.222 67.4674 120.11 69.4178 122.5C71.3679 124.89 74.328 126.914 78.2991 128.571C79.8592 129.21 81.313 129.837 82.6601 130.453C84.0076 131.068 85.1716 131.707 86.1526 132.369C87.1336 133.032 87.9077 133.754 88.4749 134.535C89.0421 135.316 89.3258 136.204 89.3258 137.198C89.3258 137.931 89.1485 138.612 88.7938 139.239C88.4396 139.866 87.9015 140.41 87.1808 140.872C86.46 141.333 85.5616 141.694 84.4862 141.955C83.4108 142.215 82.152 142.345 80.7101 142.345C78.2519 142.345 75.8175 141.913 73.4066 141.049C70.9952 140.185 68.7615 138.89 66.7052 137.162V137.162ZM47.8098 108.891H62.3881V99.5372H21.7538V108.891H36.2609V150.54H47.8098V108.891Z" fill="white"/>
<path opacity="0.85" d="M86.8839 98.8337C82.9221 98.3947 78.8223 98.1571 74.9185 98.9707C63.2888 101.394 63.0542 106.116 67.8419 115.876C71.7431 123.829 79.8204 125.822 87.9635 123.916C91.7172 123.037 94.2855 120.446 95.4961 116.911C96.7738 113.18 97.7456 109.217 97.5268 105.296C97.2339 100.044 91.2009 99.3121 86.8839 98.8337V98.8337V98.8337Z" fill="black" stroke="black" stroke-width="4"/>
<path opacity="0.85" d="M33.1342 100.025C37.0961 99.5858 41.1959 99.3482 45.0997 100.162C56.7294 102.585 56.9639 107.307 52.1763 117.067C48.275 125.02 40.1978 127.013 32.0547 125.107C28.301 124.228 25.7326 121.638 24.522 118.102C23.2444 114.371 22.2726 110.408 22.4914 106.487C22.7843 101.235 28.8173 100.503 33.1342 100.025V100.025Z" fill="black" stroke="black" stroke-width="4"/>
<path d="M85.4286 97.0698C78.3541 97.1164 71.5366 99.2952 64.5927 100.166C61.6945 100.53 58.7075 100.619 55.8045 100.281C51.9447 99.8315 48.2077 98.6372 44.3506 98.102C40.9035 97.6237 37.4131 97.1244 33.9443 97.1043C27.8825 97.0691 22.0194 98.9391 16.0767 99.9485C16.0767 101.661 15.7237 103.86 16.6121 105.063C17.5286 106.305 19.0746 107.441 19.4756 109.123C20.4267 113.114 21.7768 117.026 23.5031 120.776C24.342 122.598 25.9255 123.868 27.6935 124.744C31.9512 126.851 36.9906 127.161 41.6617 126.498C48.3136 125.555 51.9221 120.637 54.6754 115.018C55.7059 112.734 55.8209 110.098 57.178 108.011C57.9841 106.771 59.856 107.293 61.1938 107.288C62.5317 107.284 63.6654 109.476 64.0806 110.935C65.5499 116.1 67.9999 121.579 72.8689 124.285C80.1399 128.326 91.5947 127.57 96.3121 120.282C98.1584 117.43 98.6683 113.97 99.5946 110.74C100.159 108.775 100.662 106.431 102.668 105.35C103.477 104.914 102.909 103.174 103.028 102.162C103.159 101.06 103.41 100.085 101.818 99.8682C99.0415 99.4905 96.3484 98.3417 93.5069 97.9529C90.8141 97.5845 88.1758 97.0518 85.4286 97.0698V97.0698ZM38.6586 98.9048C40.6667 98.8922 42.6664 99.0371 44.6183 99.4439C56.248 101.868 56.4832 106.588 51.6955 116.349C47.7943 124.302 39.7129 126.294 31.5697 124.388C27.816 123.509 25.2491 120.928 24.0385 117.392C22.7609 113.661 21.7944 109.696 22.0132 105.775C22.3062 100.523 28.3353 99.7846 32.6522 99.3062C34.6332 99.0867 36.6504 98.9174 38.6586 98.9048V98.9048ZM81.1218 98.9048C83.1299 98.9174 85.1471 99.0867 87.1281 99.3062C91.445 99.7846 97.4742 100.523 97.7671 105.775C97.9859 109.696 97.0194 113.661 95.7418 117.392C94.5312 120.928 91.9643 123.509 88.2106 124.388C80.0674 126.294 71.986 124.302 68.0848 116.349C63.2971 106.588 63.5323 101.868 75.162 99.4439C77.1139 99.0371 79.1136 98.8923 81.1218 98.9048V98.9048Z" fill="black" stroke="black" stroke-width="4"/>
<path opacity="0.85" d="M30.744 102.766C30.0488 102.933 29.3273 103.097 28.6303 103.206C26.5537 103.53 26.4661 103.327 27.216 102.71C27.827 102.208 29.2333 101.817 30.6894 101.599C31.3606 101.499 31.8394 101.519 32.0876 101.633C32.3496 101.753 32.5598 101.895 32.5596 102.079C32.5592 102.326 31.5013 102.584 30.744 102.766V102.766Z" fill="white"/>
<path opacity="0.85" d="M75.1769 102.338C74.4088 102.517 73.6123 102.695 72.8456 102.825C70.5613 103.214 70.4779 103.05 71.332 102.494C72.0281 102.04 73.5851 101.635 75.1862 101.37C75.9242 101.248 76.4451 101.238 76.7092 101.318C76.9879 101.403 77.2089 101.509 77.1977 101.663C77.1827 101.868 76.0137 102.143 75.1769 102.338V102.338Z" fill="white"/>
</g>
<g clip-path="url(#clip1)">
<path d="M18.0964 1.91741C18.1738 1.9775 18.2954 2.03213 18.3617 2.04305C18.4336 2.04851 18.5386 2.07583 18.5994 2.10314C18.6602 2.12499 18.8813 2.2124 19.0969 2.2998C19.3069 2.38174 19.7767 2.58386 20.1305 2.75321C20.4842 2.92255 20.8048 3.05912 20.8324 3.05912C20.8656 3.05912 20.8932 3.08643 20.8932 3.11375C20.8932 3.14652 20.9872 3.21754 21.0977 3.2667C21.2138 3.32133 21.3962 3.41966 21.5012 3.48521C21.6063 3.55076 21.7389 3.59993 21.7887 3.58354C21.8439 3.57261 21.9711 3.61632 22.065 3.67641C22.1645 3.74196 22.3193 3.83483 22.4022 3.87853C22.4906 3.92223 22.6067 4.02056 22.6675 4.1025C22.767 4.24453 23.6458 4.80719 23.7564 4.80719C23.784 4.80719 23.8393 4.84543 23.878 4.88913C23.9167 4.93283 24.0106 4.97107 24.0936 4.97107C24.193 4.97107 24.2649 5.02024 24.3257 5.12403C24.3699 5.20597 24.486 5.30976 24.5744 5.35346C24.6629 5.39716 24.8563 5.52827 25 5.64845C25.1437 5.76317 25.3206 5.8615 25.3869 5.86696C25.4588 5.87242 25.5528 5.94344 25.6191 6.04723C25.6799 6.14556 25.7739 6.22204 25.8236 6.2275C25.8789 6.2275 25.9231 6.25481 25.9231 6.28213C25.9231 6.3149 26.2547 6.67544 26.6638 7.09061C27.0728 7.50031 27.5592 8.02474 27.7471 8.24871C27.935 8.47268 28.1506 8.72943 28.2335 8.82229C28.3164 8.9097 28.4104 9.05173 28.4491 9.13367C28.4878 9.22107 28.543 9.28663 28.5762 9.28663C28.6038 9.28663 28.6315 9.32486 28.6315 9.36857C28.6315 9.41227 28.7918 9.71272 28.9852 10.035C29.3445 10.6414 29.6485 11.3133 29.6374 11.4881C29.6374 11.5373 29.5435 11.7667 29.4385 11.9852C29.2284 12.4168 29.2063 12.5096 29.2948 12.6735C29.3666 12.8101 29.4108 13.7551 29.3445 13.7934C29.3169 13.8152 29.2948 13.8917 29.2948 13.9682C29.2948 14.1539 28.9521 15.1864 28.7752 15.5524C28.6923 15.7108 28.6315 15.8747 28.6315 15.9184C28.6315 15.9566 28.5928 16.0222 28.5486 16.0604C28.5043 16.0986 28.438 16.2297 28.4049 16.3499C28.3717 16.4756 28.2833 16.634 28.2059 16.7105C28.0401 16.8744 27.6918 17.4206 27.6918 17.5135C27.6918 17.6173 28.228 17.8139 28.637 17.8576C28.8913 17.885 29.0405 17.9287 29.0847 17.9887C29.1289 18.0434 29.6982 18.251 30.4555 18.4913C32.9815 19.2889 38.3485 21.1681 40.3494 21.9601C44.3622 23.5389 46.7334 25.0848 51.7854 29.384C53.7863 31.0938 53.6205 30.9736 54.024 30.9736C54.2119 30.9736 54.5214 31.0119 54.7204 31.061C55.4445 31.2249 56.9866 32.0717 57.4675 32.5688C57.7881 32.902 58.9267 34.9724 59.3081 35.9229C59.894 37.376 60.3804 39.135 61.1874 42.7185C61.8451 45.6465 61.9225 45.9306 62.4863 47.635C63.144 49.6015 63.3099 50.2024 63.4812 51.1693C63.6913 52.3602 63.6581 52.7863 63.2601 54.0318C63.0611 54.671 62.9119 54.9878 62.7516 55.1298C62.4089 55.4412 61.4527 55.6597 59.2528 55.9383C46.2526 57.5826 32.3182 60.7182 21.4349 64.4492C19.3401 65.1703 18.7044 65.4434 15.4765 67.0276C12.0993 68.6828 10.9109 69.1745 9.34114 69.5678C7.93721 69.9174 7.67189 69.9393 6.35639 69.8191C5.29515 69.7208 5.16249 69.6825 4.83638 69.3493C4.5766 69.0871 4.54343 69.0161 4.27259 68.1967C3.85252 66.9293 2.70836 63.2365 2.23301 61.5922C1.19941 58.0578 0.541655 55.0588 0.226598 52.3875C0.16027 51.8631 0.0828877 51.3004 0.0552512 51.1366C-0.016604 50.7542 -0.016604 50.2243 0.0552512 49.7108C0.0884151 49.4868 0.176852 48.8204 0.254235 48.2359C0.458745 46.6407 0.61351 45.9579 1.42603 43.019C1.66923 42.1449 2.13352 40.3149 2.45963 38.9492C3.29979 35.4312 3.71986 34.0218 4.42736 32.383C5.09616 30.8371 6.37297 28.7394 8.38492 25.9097C8.72761 25.429 9.0095 25.0083 9.0095 24.9756C9.0095 24.9483 8.84369 24.9046 8.63365 24.8827C8.14724 24.8335 7.8543 24.7571 7.67189 24.626C7.58898 24.5713 7.47291 24.5276 7.42316 24.5331C7.27945 24.5549 7.09153 24.4839 7.05836 24.3965C7.04178 24.3528 6.82621 24.2163 6.57749 24.0851C6.08555 23.8229 5.87552 23.5717 5.94184 23.3094C5.96395 23.222 5.94184 23.1346 5.86446 23.0472C5.57151 22.714 5.53835 22.6594 5.56599 22.5665C5.59362 22.4573 5.03536 21.3647 4.84744 21.1571C4.72031 21.0151 4.5158 20.2394 4.56001 20.0537C4.58212 19.9663 4.56001 19.8898 4.48263 19.8188C4.4163 19.7587 4.36656 19.6494 4.36656 19.5511C4.36656 19.4582 4.2339 19.0868 4.06808 18.7153C3.71986 17.945 3.58168 17.3278 3.58168 16.5903C3.58168 15.9293 3.69775 14.9132 3.78619 14.7439C3.83041 14.6674 3.85805 14.5035 3.85252 14.3833C3.84699 14.1867 3.87463 14.1266 4.09019 13.9081C4.54343 13.4438 4.56001 13.3345 4.27812 12.7172C4.1123 12.3458 4.07914 12.2256 4.08467 11.9197C4.09572 11.4553 4.12888 11.0074 4.1731 10.8107C4.19521 10.7233 4.18416 10.6141 4.15652 10.5594C4.1123 10.4884 4.13441 10.4065 4.22285 10.2426C4.2947 10.1224 4.41078 9.86567 4.4771 9.66902C4.54896 9.47236 4.65398 9.25385 4.70925 9.18283C4.76453 9.11182 4.80874 9.01895 4.80874 8.96979C4.80874 8.92609 4.87507 8.81137 4.95798 8.71304C5.37253 8.22139 5.66548 7.7953 5.69311 7.65873C5.7097 7.55494 5.77602 7.48939 5.90315 7.43476C6.00817 7.3856 6.09661 7.29819 6.11319 7.22718C6.1353 7.15616 6.16846 7.10154 6.20163 7.10154C6.22926 7.10154 6.30665 7.04691 6.37297 6.97589C6.4393 6.90488 6.73778 6.59896 7.03073 6.29851C7.3292 5.99806 7.59451 5.68669 7.62215 5.60475C7.66084 5.51734 7.72164 5.46272 7.78797 5.46272C7.84877 5.46272 7.95379 5.39716 8.02564 5.30976C8.0975 5.22782 8.31859 5.0257 8.51205 4.85635C8.71103 4.68701 8.98187 4.44119 9.12005 4.32101C9.68384 3.80205 10.3195 3.49067 11.3752 3.21754C11.7179 3.13013 12.0661 3.02634 12.149 2.98264C12.243 2.93348 12.4696 2.9007 12.7073 2.9007C12.9284 2.9007 13.1439 2.87339 13.1826 2.84061C13.2213 2.80783 13.3761 2.79144 13.5198 2.80237C13.669 2.8133 14.0283 2.80237 14.3157 2.77506C14.8298 2.72589 15.3549 2.69312 16.0845 2.66034C16.6261 2.63303 16.8915 2.51285 17.0462 2.21786C17.1789 1.95565 17.3392 1.85732 17.6763 1.83C17.8919 1.80815 17.9859 1.83 18.0964 1.91741ZM9.31903 25.0521C9.29693 25.1067 9.31351 25.1285 9.3522 25.1176C9.43511 25.0903 9.47933 24.9646 9.40747 24.9646C9.37984 24.9646 9.33562 25.0029 9.31903 25.0521ZM5.34489 31.072C5.10169 31.5308 5.01878 31.7876 5.13486 31.7166C5.21224 31.6674 5.74839 30.6568 5.74839 30.5585C5.74839 30.3946 5.61573 30.5694 5.34489 31.072ZM2.05061 41.7625C1.98428 42.0302 1.91796 42.2979 1.90138 42.347C1.88479 42.4017 1.89585 42.4454 1.91796 42.4454C1.94559 42.4454 2.02298 42.2105 2.09483 41.9264C2.16669 41.6423 2.23301 41.3528 2.2496 41.2873C2.27171 41.2053 2.26065 41.178 2.22749 41.2163C2.19432 41.2436 2.11694 41.4894 2.05061 41.7625Z" fill="black"/>
</g>
<defs>
<clipPath id="clip0">
<rect width="105.075" height="105.296" fill="white" transform="translate(4.92538 54.7043)"/>
</clipPath>
<clipPath id="clip1">
<rect width="63.6194" height="69.9229" fill="white" transform="matrix(-1 0 0 1 63.6194 0)"/>
</clipPath>
</defs>
</svg>
